<?xml version="1.0" encoding="UTF-8" standalone="no"?>
<!-- Created with Inkscape (http://www.inkscape.org/) -->

<svg
   xmlns:dc="http://purl.org/dc/elements/1.1/"
   xmlns:cc="http://creativecommons.org/ns#"
   xmlns:rdf="http://www.w3.org/1999/02/22-rdf-syntax-ns#"
   xmlns:svg="http://www.w3.org/2000/svg"
   xmlns="http://www.w3.org/2000/svg"
   xmlns:xlink="http://www.w3.org/1999/xlink"
   xmlns:sodipodi="http://sodipodi.sourceforge.net/DTD/sodipodi-0.dtd"
   xmlns:inkscape="http://www.inkscape.org/namespaces/inkscape"
   width="32"
   height="32"
   id="svg3118"
   version="1.1"
   inkscape:version="0.47 r22583"
   sodipodi:docname="logo_2.svg"
   inkscape:export-filename="/home/ppinard/documents/workspace/pydev/pypenelope/trunk/logo/logo_48x48.png"
   inkscape:export-xdpi="135"
   inkscape:export-ydpi="135">
  <title
     id="title3948">Six Sided Dice</title>
  <defs
     id="defs3120">
    <inkscape:perspective
       sodipodi:type="inkscape:persp3d"
       inkscape:vp_x="0 : 183.86856 : 1"
       inkscape:vp_y="0 : 1000 : 0"
       inkscape:vp_z="365.62958 : 183.86856 : 1"
       inkscape:persp3d-origin="182.81479 : 122.57904 : 1"
       id="perspective4174" />
    <inkscape:perspective
       id="perspective4185"
       inkscape:persp3d-origin="0.5 : 0.33333333 : 1"
       inkscape:vp_z="1 : 0.5 : 1"
       inkscape:vp_y="0 : 1000 : 0"
       inkscape:vp_x="0 : 0.5 : 1"
       sodipodi:type="inkscape:persp3d" />
    <inkscape:perspective
       id="perspective4851"
       inkscape:persp3d-origin="0.5 : 0.33333333 : 1"
       inkscape:vp_z="1 : 0.5 : 1"
       inkscape:vp_y="0 : 1000 : 0"
       inkscape:vp_x="0 : 0.5 : 1"
       sodipodi:type="inkscape:persp3d" />
    <linearGradient
       id="linearGradient4671">
      <stop
         style="stop-color:#ffd43b;stop-opacity:1;"
         offset="0"
         id="stop4673" />
      <stop
         style="stop-color:#ffe873;stop-opacity:1"
         offset="1"
         id="stop4675" />
    </linearGradient>
    <linearGradient
       inkscape:collect="always"
       xlink:href="#linearGradient4689"
       id="linearGradient1478"
       gradientUnits="userSpaceOnUse"
       gradientTransform="matrix(0.562541,0,0,0.567972,-9.399749,-5.305317)"
       x1="26.648937"
       y1="20.603781"
       x2="135.66525"
       y2="114.39767" />
    <linearGradient
       id="linearGradient4689">
      <stop
         style="stop-color:#5a9fd4;stop-opacity:1;"
         offset="0"
         id="stop4691" />
      <stop
         style="stop-color:#306998;stop-opacity:1;"
         offset="1"
         id="stop4693" />
    </linearGradient>
    <inkscape:perspective
       id="perspective5000"
       inkscape:persp3d-origin="0.5 : 0.33333333 : 1"
       inkscape:vp_z="1 : 0.5 : 1"
       inkscape:vp_y="0 : 1000 : 0"
       inkscape:vp_x="0 : 0.5 : 1"
       sodipodi:type="inkscape:persp3d" />
  </defs>
  <sodipodi:namedview
     id="base"
     pagecolor="#ffffff"
     bordercolor="#666666"
     borderopacity="1.0"
     inkscape:pageopacity="0.0"
     inkscape:pageshadow="2"
     inkscape:zoom="11.2"
     inkscape:cx="22.234823"
     inkscape:cy="13.517823"
     inkscape:document-units="px"
     inkscape:current-layer="layer4"
     showgrid="false"
     inkscape:window-width="1280"
     inkscape:window-height="949"
     inkscape:window-x="1440"
     inkscape:window-y="25"
     inkscape:window-maximized="1" />
  <metadata
     id="metadata3123">
    <rdf:RDF>
      <cc:Work
         rdf:about="">
        <dc:format>image/svg+xml</dc:format>
        <dc:type
           rdf:resource="http://purl.org/dc/dcmitype/StillImage" />
        <dc:title>Six Sided Dice</dc:title>
        <cc:license
           rdf:resource="http://creativecommons.org/licenses/publicdomain/" />
        <dc:creator>
          <cc:Agent>
            <dc:title>Brian Burger/Wirelizard Design</dc:title>
          </cc:Agent>
        </dc:creator>
        <dc:description>Simple six-sided dice (d6).</dc:description>
      </cc:Work>
      <cc:License
         rdf:about="http://creativecommons.org/licenses/publicdomain/">
        <cc:permits
           rdf:resource="http://creativecommons.org/ns#Reproduction" />
        <cc:permits
           rdf:resource="http://creativecommons.org/ns#Distribution" />
        <cc:permits
           rdf:resource="http://creativecommons.org/ns#DerivativeWorks" />
      </cc:License>
    </rdf:RDF>
  </metadata>
  <g
     inkscape:label="dice"
     inkscape:groupmode="layer"
     id="layer1"
     transform="translate(-117.14568,-608.0993)" />
  <g
     inkscape:groupmode="layer"
     id="layer3"
     inkscape:label="face1" />
  <g
     inkscape:groupmode="layer"
     id="layer4"
     inkscape:label="face2">
    <g
       id="g5467"
       transform="translate(0.62502211,-0.47634263)">
      <path
         sodipodi:nodetypes="ccccccccsssccccssssccs"
         id="path3924"
         d="m 120.2618,613.98518 c -0.0247,0.007 -0.0327,0.0449 -0.0492,0.12294 l -3.04887,15.25042 c -0.0356,0.15864 -0.0293,0.19794 0.1168,0.3258 l 11.58074,9.98253 c 0.26936,0.25745 0.32595,0.25414 0.36266,-0.0615 l 3.37464,-15.46556 c 0.0707,-0.21071 -0.002,-0.32662 -0.12293,-0.42414 l -12.09091,-9.65672 c -0.0623,-0.0525 -0.0983,-0.0801 -0.12293,-0.0738 l 0,3e-5 z m 27.56265,5.23715 c -0.0259,0.006 -0.0622,0.0143 -0.10451,0.0307 l -13.82435,4.79458 c -0.28157,0.11592 -0.27313,0.16325 -0.31965,0.37495 l -3.36849,15.41639 c -0.0114,0.22698 -0.095,0.33027 0.17212,0.20902 l 13.62151,-5.08964 c 0.2643,-0.12645 0.31497,-0.14867 0.34422,-0.40569 l 3.53447,-15.20126 c 0.0293,-0.1071 0.0222,-0.14527 -0.0554,-0.12908 l 3e-5,-2e-5 z"
         style="fill:#000080;fill-opacity:1;stroke:none"
         transform="translate(-117.14568,-608.0993)" />
      <path
         sodipodi:nodetypes="cccccccccccccscccssccssssc"
         id="path3924-1"
         d="m 18.019976,0.95283469 c -0.08908,-0.001922 -0.185316,0.0200836 -0.307346,0.0615 L 4.1894815,4.9852267 c -0.1125354,0.02633 -0.1059914,0.056599 -0.0123,0.1290923 l 12.0048765,9.582998 c 0.221045,0.183261 0.325018,0.205987 0.633124,0.110643 L 30.27686,10.142473 c 0.308845,-0.113497 0.330303,-0.141104 0.0123,-0.3503773 L 18.474846,1.1495674 C 18.292441,1.0210228 18.168432,0.95572711 18.019976,0.95287313 l -9e-6,0 9e-6,-3.844e-5 z M 8.8549583,4.4319765 c 0.2693028,-0.00192 0.5597356,0.027579 0.8544168,0.092154 C 10.888119,4.7825842 11.717975,5.4967818 11.565734,6.1223137 11.413502,6.7478745 10.334897,7.050762 9.1561642,6.7923274 7.9774205,6.5338833 7.1475645,5.8135549 7.2997962,5.1879941 7.4139844,4.7188356 8.0470885,4.4359067 8.8549583,4.4319284 l 0,4.81e-5 z M 24.418889,8.0156106 c 0.269293,-0.00192 0.559727,0.027579 0.854417,0.092154 1.178734,0.2584538 2.0086,0.9726416 1.856359,1.5982023 -0.152232,0.6255511 -1.230836,0.9284581 -2.40958,0.6700141 -1.178744,-0.258445 -2.0086,-0.9788017 -1.856368,-1.6043527 0.114188,-0.4691393 0.747292,-0.7520586 1.555172,-0.7560561 l 0,3.85e-5 z"
         style="fill:#000080;fill-opacity:1;stroke:none" />
      <path
         id="path5014"
         d="m 17.50279,27.7101 1.71596,-9.523577 7.29283,-2.57394 -1.887556,10.381558"
         style="fill:none;stroke:#ffffff;stroke-width:1.24921882;stroke-linecap:butt;stroke-linejoin:miter;stroke-miterlimit:4;stroke-opacity:1;stroke-dasharray:none" />
      <g
         transform="matrix(0.07518259,0.05071059,-0.0250313,0.08000149,4.6574261,14.605784)"
         id="g4897">
        <g
           transform="matrix(1.0542719,0.16300814,-0.01806931,0.94572806,-2.271529,-6.8226357)"
           id="g4905">
          <path
             id="path1948"
             d="m 48.204237,-35.052722 c -4.583653,0.0213 -8.960939,0.412218 -12.8125,1.09375 -11.346216,2.004504 -13.406249,6.200102 -13.40625,13.9375 l 0,10.21875 26.8125,0 0,3.40625 -26.8125,0 -10.0625,0 c -7.7924585,0 -14.6157583,4.683717 -16.7499993,13.59375 -2.46182,10.212966 -2.5710151,16.586023 0,27.25 1.9059283,7.937852 6.4575432,13.593748 14.2499998,13.59375 l 9.2187495,0 0,-12.25 c 0,-8.849902 7.657144,-16.656248 16.75,-16.65625 l 26.78125,0 c 7.454951,0 13.406253,-6.138164 13.40625,-13.625 l 0,-25.53125 c 0,-7.266339 -6.12998,-12.724777 -13.40625,-13.9375 -4.605987,-0.766725 -9.385097,-1.115048 -13.96875,-1.09375 z m -14.5,8.21875 c 2.769547,0 5.03125,2.298646 5.03125,5.125 -2e-6,2.816336 -2.261703,5.09375 -5.03125,5.09375 -2.779476,-1e-6 -5.03125,-2.277415 -5.03125,-5.09375 -10e-7,-2.826353 2.251774,-5.125 5.03125,-5.125 z"
             style="fill:none;stroke:#ffffff;stroke-width:5.6296072;stroke-miterlimit:4;stroke-opacity:1;stroke-dasharray:none" />
          <path
             id="path1950"
             d="m 78.922987,-6.396472 0,11.90625 c 0,9.230755 -7.825895,16.999999 -16.75,17 l -26.78125,0 c -7.335833,0 -13.406249,6.278483 -13.40625,13.625 l 0,25.531247 c 0,7.266344 6.318588,11.540324 13.40625,13.625004 8.487331,2.49561 16.626237,2.94663 26.78125,0 6.750155,-1.95439 13.406253,-5.88761 13.40625,-13.625004 l 0,-10.218747 -26.78125,0 0,-3.40625 26.78125,0 13.406254,0 c 7.792461,0 10.696251,-5.435408 13.406239,-13.59375 2.79933,-8.398886 2.68022,-16.475776 0,-27.25 -1.92578,-7.75744099 -5.603868,-13.59375 -13.406239,-13.59375 l -10.062504,0 z m -15.0625,64.65625 c 2.779478,3e-6 5.03125,2.277417 5.03125,5.093747 -2e-6,2.826354 -2.251775,5.125004 -5.03125,5.125004 -2.76955,0 -5.03125,-2.29865 -5.03125,-5.125004 2e-6,-2.81633 2.261697,-5.093747 5.03125,-5.093747 z"
             style="fill:none;stroke:#ffffff;stroke-width:5.6296072;stroke-miterlimit:4;stroke-opacity:1;stroke-dasharray:none" />
        </g>
      </g>
    </g>
  </g>
</svg>
